<svg viewBox="0 0 1920 634" fill="none" xmlns="http://www.w3.org/2000/svg">
                    <path class="bg-path" d="M207 286C162.2 87.6 39 44.6667 -17 48L-91 22L-71 726H13L1977 670L1957 424C1926.6 318.4 1815 392 1763 442C1619.8 570 1503.33 495.333 1463 442C1270.2 162.8 1197.33 325.667 1185 442C1159.4 584.4 1117 537.333 1099 496C953.4 192.8 868.333 328.333 844 434C791.2 649.2 649.333 555.667 585 482C455.4 356.4 380.333 429.667 359 482C315 616.4 273.333 547.333 258 496L207 286Z" fill=""></path>
                    <path class="bg-stroke" d="M207 266C162.2 67.6 39 24.6667 -17 28L-91 2L-71 706H13L1977 650L1957 404C1926.6 298.4 1815 372 1763 422C1619.8 550 1503.33 475.333 1463 422C1270.2 142.8 1197.33 305.667 1185 422C1159.4 564.4 1117 517.333 1099 476C953.4 172.8 868.333 308.333 844 414C791.2 629.2 649.333 535.667 585 462C455.4 336.4 380.333 409.667 359 462C315 596.4 273.333 527.333 258 476L207 266Z" stroke="" stroke-width="2"></path>
                </svg>